<svg width="30" height="30" viewBox="0 0 30 30" xmlns="http://www.w3.org/2000/svg">
    <defs>
        <linearGradient x1="50%" y1="-22.193%" x2="50%" y2="99.944%" id="x9lwmbfd8a">
            <stop stop-color="#C60090" offset="0%"/>
            <stop stop-color="#E90015" offset="67.478%"/>
            <stop stop-color="#FA8D00" offset="99.992%"/>
        </linearGradient>
    </defs>
    <g fill="none" fill-rule="evenodd">
        <rect fill="url(#x9lwmbfd8a)" width="30" height="30" rx="15"/>
        <g fill="#FFF" fill-rule="nonzero">
            <path d="M20.837 6.875H9.34c-.383 0-.767.11-1.095.274-.11 0-.164.055-.22.11a2.413 2.413 0 0 0-1.149 2.08v11.498a2.454 2.454 0 0 0 2.464 2.464h11.498a2.454 2.454 0 0 0 2.464-2.464V9.34a2.454 2.454 0 0 0-2.464-2.464zM7.97 8.025v1.861c0 .165.11.274.274.274.164 0 .274-.11.274-.274V7.642c.164-.11.328-.165.547-.22v2.464c0 .165.11.274.274.274.164 0 .274-.11.274-.274V7.423h.547v2.463c0 .165.11.274.274.274.164 0 .274-.11.274-.274V7.423h10.13a1.94 1.94 0 0 1 1.915 1.916v2.464h-4.106a.301.301 0 0 0-.274.164c-.055.11-.055.22.055.274a4.44 4.44 0 0 1 1.04 2.847c0 2.41-1.97 4.38-4.38 4.38a4.393 4.393 0 0 1-4.38-4.38c0-1.04.383-2.026 1.04-2.847.055-.055.11-.164.055-.274a.301.301 0 0 0-.274-.164H7.423V9.339c0-.493.219-.986.547-1.314z"/>
            <path d="M18.647 10.708h2.19c.164 0 .274-.11.274-.274v-2.19c0-.164-.11-.274-.274-.274h-2.19c-.164 0-.274.11-.274.274v2.19c0 .164.11.274.274.274zM15.088 18.92a3.81 3.81 0 0 0 3.833-3.832 3.81 3.81 0 0 0-3.833-3.833 3.81 3.81 0 0 0-3.833 3.833 3.81 3.81 0 0 0 3.833 3.833zm0-5.475c.93 0 1.643.712 1.643 1.643 0 .93-.712 1.643-1.643 1.643-.93 0-1.643-.712-1.643-1.643 0-.93.712-1.643 1.643-1.643z"/>
        </g>
    </g>
</svg>
